<?xml version="1.0" standalone="no"?>
<!DOCTYPE svg PUBLIC "-//W3C//DTD SVG 20010904//EN"
 "http://www.w3.org/TR/2001/REC-SVG-20010904/DTD/svg10.dtd">
<svg version="1.0" xmlns="http://www.w3.org/2000/svg"
 width="700.000000pt" height="700.000000pt" viewBox="0 0 700.000000 700.000000"
 preserveAspectRatio="xMidYMid meet">
<metadata>
Created by potrace 1.14, written by Peter Selinger 2001-2017
</metadata>
<g transform="translate(0.000000,700.000000) scale(0.100000,-0.100000)"
fill="#000000" stroke="none">
<path d="M3298 6915 c-2 -1 -42 -5 -90 -9 -150 -10 -361 -45 -528 -87 -25 -6
-49 -12 -55 -13 -235 -56 -659 -234 -860 -360 -16 -11 -66 -42 -110 -70 -656
-414 -1176 -1090 -1414 -1838 -54 -169 -109 -412 -126 -553 -4 -27 -8 -61 -11
-75 -28 -173 -26 -638 6 -858 17 -120 21 -145 46 -266 149 -710 524 -1349
1089 -1856 446 -401 1056 -692 1675 -799 211 -37 325 -46 575 -46 188 0 333 7
405 20 14 2 46 7 72 9 302 35 669 145 993 296 253 119 542 307 766 500 90 77
284 272 355 355 32 39 62 72 65 75 15 14 162 216 211 290 218 334 391 742 473
1119 3 11 7 29 9 40 2 10 7 34 10 52 3 19 10 59 16 89 6 30 13 75 16 100 3 25
7 56 9 70 26 146 26 653 0 801 -2 13 -6 42 -9 65 -12 105 -37 232 -76 384
-189 743 -640 1417 -1259 1883 -222 167 -498 325 -736 422 -50 20 -99 40 -110
45 -123 56 -550 165 -720 185 -65 7 -121 14 -170 21 -41 6 -511 14 -517 9z
m497 -118 c17 -3 57 -8 90 -11 940 -106 1814 -639 2354 -1436 320 -471 511
-1013 558 -1575 9 -116 9 -412 0 -538 -22 -298 -91 -605 -206 -917 -36 -99
-31 -86 -115 -260 -403 -841 -1162 -1481 -2061 -1739 -194 -56 -407 -96 -625
-118 -95 -9 -459 -10 -565 -1 -786 68 -1512 406 -2070 966 -84 84 -164 172
-207 228 -12 16 -25 31 -28 34 -17 16 -115 148 -167 225 -281 423 -461 892
-529 1380 -3 28 -8 57 -9 66 -26 141 -26 657 0 799 2 14 6 43 9 65 59 476 277
1026 568 1435 218 305 519 605 820 816 369 260 857 463 1293 539 17 3 41 7 55
9 49 9 186 26 255 32 39 3 71 7 73 9 5 4 474 -3 507 -8z"/>
<path d="M3338 6715 c-2 -2 -43 -6 -93 -9 -99 -7 -145 -12 -190 -20 -16 -3
-50 -8 -75 -11 -589 -84 -1248 -412 -1695 -845 -121 -117 -226 -231 -295 -320
-19 -25 -37 -47 -40 -50 -29 -25 -173 -242 -252 -380 -128 -223 -283 -610
-322 -806 -3 -10 -11 -50 -20 -89 -33 -149 -43 -221 -64 -450 -9 -88 -7 -440
2 -520 68 -621 254 -1117 598 -1597 44 -62 83 -115 87 -118 3 -3 24 -27 46
-55 119 -148 322 -347 475 -465 25 -19 47 -37 50 -41 3 -3 61 -44 130 -91 270
-185 567 -328 870 -421 111 -34 298 -80 370 -91 19 -3 46 -8 60 -11 14 -3 52
-8 85 -11 33 -4 62 -8 65 -10 15 -8 222 -18 370 -18 249 0 369 11 635 60 68
12 246 58 335 86 794 251 1460 804 1861 1543 180 332 308 724 355 1085 3 25 7
56 10 70 9 56 18 234 18 375 0 768 -264 1486 -767 2080 -97 114 -314 325 -434
422 -99 79 -363 263 -378 263 -3 0 -23 11 -45 25 -67 42 -270 141 -380 185
-219 88 -436 150 -660 189 -110 19 -135 23 -275 37 -59 6 -432 14 -437 9z
m317 -109 c77 -3 174 -10 215 -16 133 -17 155 -20 180 -25 14 -3 39 -8 55 -11
17 -3 84 -18 150 -35 657 -164 1240 -539 1678 -1079 48 -60 197 -272 227 -325
133 -231 217 -411 283 -605 44 -130 83 -269 82 -294 0 -14 -90 -85 -313 -248
l-314 -227 -76 56 c-43 30 -81 59 -85 63 -5 4 -20 59 -33 121 -69 322 -235
667 -448 934 -117 147 -313 328 -481 446 -218 153 -535 290 -795 344 -78 17
-87 18 -235 38 -147 20 -468 11 -610 -16 -11 -3 -38 -7 -60 -11 -428 -75 -857
-305 -1183 -636 -339 -343 -571 -815 -631 -1281 -1 -4 -40 -40 -88 -80 -49
-41 -97 -82 -108 -93 -45 -41 -65 -50 -79 -35 -22 23 -461 553 -490 591 l-27
36 30 108 c32 116 98 312 111 329 4 6 13 28 20 50 18 56 138 293 200 395 47
78 205 308 219 320 4 3 26 30 51 60 375 459 918 823 1485 995 63 19 125 36
137 39 13 2 43 9 68 16 25 7 56 14 70 17 14 2 36 6 50 9 35 7 196 32 250 39
25 3 106 8 180 11 74 4 136 8 138 9 2 2 11 1 20 -1 9 -1 80 -5 157 -8z m130
-970 c17 -3 46 -9 65 -12 19 -3 46 -8 60 -10 312 -56 689 -233 950 -447 343
-281 603 -681 716 -1101 13 -50 22 -91 20 -94 -2 -2 -139 97 -304 220 -165
123 -310 230 -322 238 -12 8 -31 23 -43 33 -20 17 -21 17 -46 -6 -14 -13 -120
-104 -236 -203 -115 -98 -212 -181 -215 -184 -3 -3 -26 -23 -51 -43 l-47 -38
-268 70 c-148 38 -386 100 -529 137 -143 37 -269 67 -280 66 -16 0 -359 -81
-495 -117 -22 -5 -74 25 -323 185 -163 105 -301 188 -307 185 -9 -5 -391 -323
-504 -418 -27 -23 -66 -56 -85 -72 -20 -17 -63 -53 -95 -80 l-59 -49 7 49 c19
124 99 353 182 518 236 474 651 850 1152 1046 146 57 368 113 503 127 35 3 66
8 68 10 6 6 453 -3 486 -10z m-1484 -1341 c144 -94 184 -120 323 -210 l90 -57
155 38 c86 21 161 39 166 40 84 18 200 46 206 50 8 4 125 -24 694 -171 94 -24
223 -58 288 -74 65 -17 122 -33 127 -36 5 -3 14 1 22 7 10 10 321 278 507 435
14 13 29 23 34 23 4 0 42 -26 85 -58 75 -57 376 -281 729 -543 l172 -128 73
54 c241 177 583 423 584 422 2 -2 13 -64 18 -102 12 -81 18 -125 22 -150 10
-55 12 -549 4 -625 -22 -183 -25 -206 -57 -355 -57 -269 -150 -532 -275 -777
-38 -75 -75 -144 -82 -154 -12 -15 -39 -17 -282 -16 -148 0 -280 1 -294 1
l-25 1 1 198 c1 108 2 201 3 205 0 5 13 -6 29 -25 67 -81 132 -129 208 -151
86 -25 145 10 114 68 -9 17 -24 24 -59 29 -94 12 -174 85 -252 229 -40 76 -42
83 -44 173 l-1 95 60 -62 c88 -88 183 -131 241 -109 48 18 39 84 -13 96 -99
22 -157 71 -237 199 -48 77 -49 79 -50 166 l-1 88 46 -49 c78 -84 192 -117
226 -65 21 32 10 63 -24 71 -65 14 -90 26 -120 57 -42 43 -80 124 -112 232
-23 78 -30 91 -53 99 -38 14 -53 -4 -78 -95 -48 -171 -121 -272 -205 -285 -54
-8 -75 -37 -56 -79 9 -19 19 -25 45 -25 70 0 160 50 206 115 l21 30 0 -91 0
-90 -49 -79 c-76 -123 -158 -195 -222 -195 -54 0 -79 -66 -35 -95 19 -13 32
-14 71 -5 71 16 104 36 173 106 l62 63 0 -93 c0 -88 -2 -97 -36 -162 -74 -139
-156 -218 -248 -239 -70 -17 -76 -21 -76 -55 0 -44 29 -59 93 -48 76 14 141
54 208 127 l59 64 0 -207 c0 -158 -3 -206 -12 -207 -18 -1 -1141 -1 -1153 0
-5 1 9 10 32 20 62 29 105 79 133 154 6 18 17 27 32 28 13 0 32 2 43 4 11 2
36 6 55 8 50 5 137 36 189 66 74 44 79 57 87 221 4 80 8 161 9 180 1 19 -2 43
-7 52 -4 9 -55 40 -112 69 l-104 52 -21 56 c-42 118 -100 287 -106 313 -5 21
-3 27 13 32 30 10 91 73 108 114 18 42 13 126 -10 170 -21 40 -65 78 -116 101
-40 18 -61 20 -205 17 l-161 -4 -2 64 c-2 45 1 66 10 69 10 3 100 10 205 14
18 1 43 30 43 51 0 10 -7 26 -16 35 -17 17 -20 17 -314 0 -226 -13 -274 -16
-365 -20 -55 -3 -147 -7 -205 -11 -58 -3 -139 -7 -180 -9 -41 -2 -120 -6 -175
-10 -55 -3 -145 -8 -200 -10 -55 -3 -136 -8 -180 -10 -44 -2 -134 -7 -200 -11
-66 -4 -132 -7 -146 -8 -35 -2 -59 -23 -59 -52 0 -33 36 -53 85 -49 22 2 85 5
140 7 l99 3 1 -44 0 -44 -85 -17 c-111 -23 -161 -44 -238 -97 -116 -82 -186
-205 -206 -366 -9 -67 12 -73 224 -71 96 2 315 3 486 4 354 1 317 -8 427 102
l67 68 113 0 113 0 49 -50 49 -50 -29 -30 c-16 -16 -32 -30 -37 -30 -4 0 -22
14 -40 30 -29 28 -36 30 -104 30 l-73 0 -81 -80 c-65 -65 -79 -84 -71 -98 13
-24 142 -152 155 -153 6 -1 40 -3 75 -4 60 -1 67 1 101 31 l37 33 34 -35 33
-34 -47 -47 -47 -48 -112 -1 -113 -2 -86 84 -86 84 -104 1 c-57 0 -281 2 -498
3 -372 3 -395 2 -413 -16 -17 -17 -18 -39 -18 -316 0 -372 -15 -342 174 -342
l133 0 11 -38 c15 -51 72 -115 124 -141 l43 -21 -35 -1 c-45 -1 -1091 -1
-1107 0 -10 1 -13 50 -13 208 l0 207 50 -56 c105 -118 254 -177 301 -119 34
41 7 73 -73 86 -77 12 -173 109 -245 247 -30 57 -33 70 -33 154 l0 92 64 -64
c65 -65 122 -98 186 -108 43 -6 80 15 80 47 0 35 -12 45 -65 57 -83 19 -158
91 -237 228 -24 41 -27 58 -28 136 l0 89 23 -29 c53 -69 131 -114 197 -114 42
0 60 18 60 59 0 21 -35 47 -57 43 -26 -5 -93 40 -122 82 -41 59 -83 165 -97
241 -8 46 -37 71 -71 59 -23 -8 -30 -21 -53 -99 -51 -175 -113 -264 -196 -279
-67 -13 -92 -50 -57 -88 39 -43 150 -7 224 73 l45 49 -1 -87 c-1 -79 -5 -94
-33 -143 -76 -132 -161 -211 -241 -224 -32 -5 -44 -12 -51 -31 -19 -49 12 -77
75 -68 62 8 124 45 190 112 l61 61 -1 -92 c-1 -99 -11 -129 -79 -237 -60 -94
-161 -170 -227 -171 -39 0 -65 -34 -53 -68 9 -25 13 -27 69 -27 78 1 140 32
217 109 32 33 58 63 58 68 0 4 3 8 8 8 4 0 7 -92 7 -205 0 -199 0 -205 -20
-206 -116 -5 -568 0 -575 7 -19 21 -133 245 -179 353 -121 284 -214 636 -236
896 -3 39 -8 83 -11 99 -7 41 -7 398 0 471 17 171 18 183 36 284 6 30 10 57
10 60 0 3 13 -10 29 -29 16 -19 38 -45 49 -58 11 -13 35 -41 54 -64 40 -49
242 -294 268 -324 10 -12 46 -56 80 -98 35 -42 66 -76 69 -76 3 0 17 10 31 23
14 13 106 90 205 173 99 82 191 159 205 171 14 12 156 130 315 263 160 133
301 251 315 263 55 48 84 68 95 63 6 -2 72 -43 146 -91z m1769 -670 c0 -45 -4
-65 -12 -66 -7 0 -67 -2 -133 -4 -66 -1 -246 -6 -400 -10 -154 -4 -334 -8
-400 -10 -66 -2 -160 -4 -209 -5 -100 -3 -109 3 -96 64 4 24 12 31 30 32 14 1
84 5 155 8 72 4 155 8 185 11 30 2 118 6 195 10 77 3 163 8 190 10 28 2 106 6
175 10 68 3 125 7 126 8 2 1 46 3 98 5 l96 3 0 -66z m442 -173 c35 -14 59 -52
63 -97 6 -64 -64 -124 -154 -130 -25 -2 -82 -6 -126 -9 -44 -4 -116 -9 -160
-12 -170 -11 -165 -6 -166 -153 0 -58 -2 -158 -5 -222 -3 -87 0 -120 10 -134
13 -18 34 -19 332 -20 l319 -1 83 -42 83 -43 -2 -90 c-2 -49 -7 -93 -13 -97
-20 -15 -426 -5 -483 11 -54 16 -123 14 -157 -6 -15 -8 -195 -11 -636 -12
-546 0 -621 1 -666 16 -54 18 -116 17 -174 -3 -21 -8 -97 -12 -198 -13 -155 0
-163 1 -167 20 -5 27 -5 236 1 255 3 14 56 15 444 12 l440 -3 84 -83 84 -83
143 0 c78 -1 152 2 164 7 24 9 185 168 185 183 0 20 -27 55 -82 109 -32 31
-58 64 -58 71 0 8 17 30 38 49 68 62 95 96 95 122 0 20 -23 48 -86 111 l-86
85 -157 0 -157 0 -86 -84 -86 -83 -215 -1 c-118 -1 -307 -1 -420 -2 -113 0
-215 -1 -228 0 -28 0 -26 11 18 106 43 95 117 160 230 201 91 34 112 35 645
48 143 4 312 8 375 10 63 2 243 7 400 10 157 4 286 8 287 8 8 8 224 -2 245
-11z m-68 -349 c36 -93 106 -307 103 -316 -2 -7 -46 -11 -120 -11 -110 -1
-117 0 -118 19 -3 59 -4 292 -1 306 5 25 127 27 136 2z m-244 -2 c10 -2 5
-321 -5 -322 -33 -3 -105 -1 -117 3 -11 5 -13 33 -11 149 2 79 6 149 8 156 4
13 90 23 125 14z m-628 -188 l32 -33 -32 -33 c-43 -44 -90 -43 -135 2 l-31 31
33 34 c45 47 87 46 133 -1z m-757 -603 c39 -13 69 -44 88 -90 41 -100 -30
-209 -142 -217 -132 -10 -216 147 -136 253 50 65 107 82 190 54z m1507 -16
c88 -65 89 -194 2 -260 -31 -24 -47 -29 -95 -29 -65 0 -98 18 -136 75 -57 83
-6 212 94 239 38 10 105 -2 135 -25z m-1807 -6 c3 -3 -1 -21 -9 -40 l-15 -36
-93 3 c-51 1 -97 3 -101 3 -17 4 -2 67 16 72 23 6 196 5 202 -2z m1467 3 c15
-1 15 -4 1 -39 l-15 -39 -478 0 -478 0 -11 36 c-6 19 -7 38 -2 41 7 4 904 5
983 1z m778 -1 c50 -3 -133 -67 -216 -74 l-51 -5 -16 39 c-14 35 -13 39 1 42
14 3 245 1 282 -2z m-775 -223 c21 -55 68 -108 120 -136 35 -19 37 -21 15 -22
-39 -1 -1232 -1 -1260 1 -24 1 -24 1 6 14 52 23 100 73 125 131 l24 55 477 0
476 0 17 -43z m-1417 -716 c7 -1 12 -14 12 -31 l0 -30 -65 0 c-63 0 -65 -1
-65 -25 0 -23 3 -25 50 -25 50 0 50 0 50 -33 0 -34 0 -34 -47 -33 -45 1 -48
-1 -51 -26 l-3 -28 66 0 66 0 -3 -32 -3 -33 -97 0 -98 0 0 147 c0 132 2 147
18 150 14 3 127 2 170 -1z m277 -11 c8 -7 15 -28 15 -46 0 -32 -2 -34 -35 -34
-23 0 -34 4 -32 13 1 7 -12 13 -35 15 -26 2 -38 -1 -38 -10 0 -26 16 -36 63
-43 64 -10 85 -33 85 -96 1 -70 -18 -85 -106 -86 -80 -1 -101 11 -109 61 -6
36 -5 36 31 36 25 0 36 -4 36 -15 0 -11 11 -15 41 -15 36 0 40 2 37 22 -2 17
-14 24 -56 33 -29 7 -61 20 -71 30 -32 28 -24 126 11 142 30 13 144 9 163 -7z
m305 -17 c0 -31 -2 -33 -37 -33 l-38 0 2 -118 3 -118 -35 0 -35 0 0 118 0 118
-40 0 c-36 0 -39 2 -37 28 1 15 5 29 9 32 3 3 52 5 107 5 l101 0 0 -32z m702
7 c23 -29 23 -91 1 -119 -10 -11 -42 -29 -72 -39 -34 -12 -55 -25 -57 -35 -2
-15 8 -17 72 -17 l74 0 0 -29 c0 -16 -6 -31 -12 -33 -7 -3 -56 -4 -108 -4
l-95 1 1 68 c0 76 9 88 79 106 54 14 69 26 62 46 -8 20 -74 18 -69 -2 1 -9
-10 -13 -33 -13 -32 0 -35 3 -35 28 0 31 16 57 40 64 8 3 42 4 74 3 48 -2 63
-7 78 -25z m286 7 c14 -15 17 -36 17 -133 -1 -143 -7 -152 -111 -152 -98 1
-104 9 -104 153 0 144 5 151 110 150 53 -1 74 -5 88 -18z m290 -1 c20 -20 21
-111 1 -132 -8 -7 -39 -22 -69 -31 -35 -12 -56 -24 -58 -35 -3 -16 5 -18 71
-18 70 0 74 -1 73 -22 -3 -40 -11 -43 -108 -42 -51 1 -96 2 -100 3 -12 2 -10
109 2 131 5 10 38 28 74 40 54 18 63 24 59 40 -7 26 -73 29 -73 4 0 -25 -65
-15 -66 11 -1 30 15 55 39 64 36 14 137 5 155 -13z m259 15 c26 -2 43 -33 43
-81 0 -59 -13 -74 -85 -96 -40 -13 -55 -23 -55 -36 0 -16 9 -18 70 -18 l70 0
0 -33 0 -32 -105 0 -105 0 -1 30 c-3 58 3 100 16 114 7 7 37 21 66 31 41 13
55 22 57 38 3 19 -1 22 -32 22 -25 0 -36 -4 -36 -15 0 -10 -11 -15 -35 -15
-32 0 -35 2 -35 29 0 56 46 73 167 62z m-1439 -263 c-3 -29 -6 -33 -33 -33
-27 0 -30 3 -32 33 -1 30 1 32 34 32 33 0 34 -1 31 -32z"/>
<path d="M3539 6368 c-2 -7 -4 -91 -4 -187 l0 -175 40 0 c39 -1 40 0 41 34 1
19 3 103 5 185 l4 150 -41 3 c-28 2 -43 -1 -45 -10z"/>
<path d="M3729 6348 c0 -13 -2 -30 -3 -38 -4 -19 -17 -115 -22 -160 -2 -19 -8
-59 -13 -88 -4 -29 -5 -54 -2 -56 3 -2 22 -6 41 -8 l35 -3 16 110 c18 123 13
126 69 -33 34 -96 35 -97 99 -104 28 -3 34 14 46 122 3 30 11 97 18 148 7 51
11 95 8 97 -2 3 -22 5 -43 5 -35 0 -38 -2 -39 -27 0 -16 -2 -35 -3 -43 -2 -8
-6 -40 -10 -69 -6 -52 -12 -69 -19 -60 -2 2 -21 51 -42 109 -21 58 -43 108
-49 112 -6 4 -28 8 -48 8 -33 0 -38 -3 -39 -22z"/>
<path d="M3067 6350 c-57 -11 -72 -31 -69 -91 1 -29 9 -63 17 -76 13 -19 14
-31 7 -53 -11 -30 -6 -94 10 -123 15 -30 50 -36 134 -26 65 9 83 15 102 36 20
22 22 33 18 78 -5 41 -3 54 9 58 9 4 14 19 13 42 l-1 37 -51 -6 c-28 -3 -76
-8 -107 -12 -55 -6 -56 -6 -61 20 -6 28 4 39 40 44 15 2 22 -2 22 -13 0 -13 7
-16 38 -11 20 3 41 5 46 6 13 0 -2 61 -21 82 -17 19 -73 22 -146 8z m129 -247
c4 -35 -4 -40 -56 -39 -32 1 -35 4 -38 33 -3 28 0 32 25 36 55 9 66 4 69 -30z"/>
<path d="M4153 6290 c-25 -10 -63 -103 -56 -140 6 -35 23 -51 87 -83 65 -33
66 -35 55 -64 -8 -21 -10 -21 -51 -9 -34 10 -43 17 -41 33 2 15 -5 23 -21 27
-13 3 -31 9 -39 12 -12 4 -19 -5 -28 -36 -18 -61 6 -89 102 -115 80 -22 84
-23 115 -12 22 8 35 33 53 101 15 57 -2 83 -76 120 -48 24 -62 36 -63 53 0 30
10 34 53 21 24 -7 37 -18 39 -31 2 -14 14 -24 37 -29 18 -5 35 -7 38 -4 3 3 8
24 10 48 6 56 -9 70 -107 97 -84 23 -77 23 -107 11z"/>
<path d="M2566 6224 c-54 -18 -101 -35 -103 -38 -3 -2 22 -82 54 -178 l59
-174 41 13 42 14 -20 56 c-24 70 -24 69 3 77 17 4 29 -2 45 -22 13 -15 33 -39
45 -53 21 -26 22 -26 65 -12 49 17 49 16 -16 86 -31 33 -34 40 -23 57 16 26
15 45 -3 100 -39 114 -54 120 -189 74z m103 -95 c10 -29 9 -31 -24 -45 -47
-19 -54 -18 -65 12 -15 37 -13 40 28 56 44 18 47 17 61 -23z"/>
<path d="M4467 6138 c-14 -35 -46 -111 -71 -171 l-45 -107 36 -15 c19 -8 39
-15 42 -15 4 0 15 23 25 50 10 28 22 52 27 55 4 3 25 -2 46 -11 103 -44 123
-38 164 51 51 112 40 134 -94 189 -49 20 -93 36 -97 36 -4 0 -19 -28 -33 -62z
m126 -63 c35 -14 35 -15 24 -50 -12 -39 -22 -42 -71 -19 l-34 17 16 33 c18 39
18 39 65 19z"/>
<path d="M2313 6125 l-33 -14 19 -43 c44 -100 131 -292 135 -295 3 -4 62 22
74 32 2 2 -22 62 -53 130 -8 16 -32 69 -54 118 -22 48 -43 87 -48 87 -4 -1
-23 -7 -40 -15z"/>
<path d="M4785 5968 c-26 -46 -56 -99 -68 -118 -11 -19 -30 -54 -43 -77 l-24
-42 58 -34 c69 -42 151 -87 157 -87 6 0 35 56 35 67 0 4 -29 24 -65 42 -36 19
-65 36 -65 38 0 11 25 53 32 53 5 0 32 -13 60 -29 l51 -30 19 36 c21 39 22 39
-37 70 -53 28 -56 32 -38 59 10 16 20 21 27 16 6 -5 37 -23 68 -41 l58 -32 19
32 c11 18 18 36 16 40 -5 7 -200 119 -208 119 -3 0 -26 -37 -52 -82z"/>
<path d="M2050 5988 c-19 -12 -37 -23 -38 -24 -2 -1 8 -54 23 -117 14 -63 28
-121 29 -128 12 -66 31 -129 39 -129 17 0 67 34 67 47 0 6 -4 23 -10 37 -8 23
-5 27 39 55 l49 30 23 -25 c12 -13 28 -24 35 -24 14 0 74 32 74 40 0 3 -34 37
-77 75 -42 39 -104 96 -137 127 -34 32 -65 57 -71 58 -5 0 -26 -10 -45 -22z
m130 -168 c0 -8 -41 -32 -47 -27 -2 3 -11 29 -18 58 l-14 52 39 -38 c22 -22
40 -42 40 -45z"/>
<path d="M5128 5843 c-24 -6 -188 -225 -188 -250 0 -38 11 -52 80 -103 89 -66
116 -66 165 0 l25 33 -37 25 -36 25 -17 -21 -17 -21 -34 25 c-19 14 -33 30
-31 35 3 13 113 159 119 159 4 0 50 -30 72 -46 2 -2 -3 -14 -12 -28 -15 -22
-15 -25 1 -38 49 -40 48 -40 76 -3 33 42 38 64 23 92 -12 21 -124 113 -138
113 -4 0 -13 2 -21 4 -7 2 -21 2 -30 -1z"/>
<path d="M1735 5776 c-44 -35 -79 -69 -77 -76 1 -7 50 -75 109 -151 l106 -138
28 20 c16 11 31 24 34 28 2 5 -12 30 -32 56 l-36 48 24 19 c109 87 113 105 41
193 -68 85 -91 85 -197 1z m132 -58 l22 -31 -27 -20 c-15 -11 -32 -24 -38 -29
-6 -4 -20 5 -34 24 l-23 32 33 28 c19 15 37 28 40 28 3 0 15 -14 27 -32z"/>
<path d="M1477 5551 l-89 -87 131 -134 131 -134 90 89 90 89 -31 29 -31 28
-55 -57 -54 -56 -25 23 -24 23 45 46 45 46 -30 29 -30 29 -45 -44 c-44 -43
-45 -43 -65 -25 -21 19 -21 19 37 77 l57 58 -29 30 -30 29 -88 -88z"/>
<path d="M5390 5615 l-24 -25 32 -33 31 -32 -101 -104 -100 -103 31 -32 31
-31 101 103 101 104 33 -32 32 -31 27 24 c14 13 26 29 26 34 0 12 -174 183
-187 183 -5 0 -20 -11 -33 -25z"/>
<path d="M5535 5269 c-71 -60 -133 -113 -137 -117 -4 -4 5 -22 20 -40 l27 -33
111 93 c60 51 125 105 143 120 l33 28 -24 29 c-13 17 -27 30 -33 30 -5 1 -68
-49 -140 -110z"/>
<path d="M1292 5343 c-12 -5 -142 -166 -142 -176 0 -6 267 -217 283 -223 7 -2
23 10 36 27 l24 32 -24 20 c-13 11 -36 29 -52 41 -23 19 -25 24 -15 39 12 16
17 16 83 -1 76 -20 76 -20 109 29 l17 26 -71 19 c-64 16 -70 20 -70 44 0 28
-29 61 -94 104 -38 25 -58 30 -84 19z m66 -115 l21 -23 -28 -34 -28 -34 -26
19 c-32 23 -33 27 -5 64 26 36 38 37 66 8z"/>
<path d="M5744 5204 c-51 -27 -214 -145 -223 -162 -13 -26 -4 -59 31 -110 48
-72 79 -102 107 -102 14 0 72 32 137 76 135 92 148 113 110 178 -71 120 -108
148 -162 120z m64 -119 c12 -19 22 -38 22 -42 0 -5 -39 -34 -85 -66 l-85 -57
-26 40 c-17 25 -24 44 -18 50 19 19 149 108 159 109 6 0 20 -15 33 -34z"/>
<path d="M979 4899 l-22 -43 34 -29 c19 -16 51 -43 72 -60 22 -18 53 -44 70
-59 l31 -26 -64 15 c-36 8 -95 23 -131 33 l-66 18 -22 -45 c-12 -25 -21 -46
-19 -48 2 -1 37 -8 78 -15 41 -7 84 -14 95 -16 11 -3 36 -7 55 -10 19 -3 53
-10 75 -15 70 -15 79 -12 98 31 21 50 22 46 -12 78 -54 52 -187 177 -218 206
l-31 28 -23 -43z"/>
<path d="M5850 4839 c-85 -43 -159 -80 -164 -82 -8 -3 19 -77 29 -77 3 0 46
21 96 46 50 25 92 44 94 42 2 -2 -28 -46 -66 -98 -38 -52 -69 -98 -69 -103 0
-7 28 -67 36 -76 3 -3 295 139 322 157 12 8 11 15 -2 41 -9 17 -21 31 -26 31
-4 0 -48 -20 -97 -44 -48 -24 -90 -43 -91 -41 -2 2 25 43 61 92 84 116 81 107
57 153 -11 22 -21 39 -23 39 -1 -1 -72 -37 -157 -80z"/>
<path d="M845 4550 c-12 -4 -25 -14 -31 -21 -12 -16 -74 -185 -74 -203 0 -6
24 -19 53 -28 28 -9 106 -35 171 -58 66 -22 122 -37 126 -33 4 4 12 22 18 39
10 32 10 32 -36 49 -82 29 -81 28 -71 53 8 20 15 22 78 22 66 0 69 1 79 28 5
15 13 35 17 45 7 16 1 17 -69 14 -56 -2 -76 1 -76 10 0 18 -40 52 -74 62 -17
5 -45 14 -61 19 -17 5 -39 6 -50 2z m88 -109 c14 -14 -14 -93 -31 -86 -7 3
-24 8 -37 11 -23 6 -23 6 -8 51 14 41 18 44 42 38 14 -3 30 -10 34 -14z"/>
<path d="M6085 4519 c-69 -26 -84 -46 -79 -111 2 -29 6 -62 8 -73 4 -25 -11
-45 -35 -45 -13 0 -22 12 -30 40 -11 35 -10 42 4 53 14 10 15 17 5 50 -13 41
-28 43 -78 8 -34 -24 -36 -60 -9 -139 38 -111 56 -122 149 -91 76 26 84 40 75
137 -5 58 -4 77 7 83 24 16 35 9 46 -30 15 -49 15 -51 -4 -51 -11 0 -14 -6
-10 -20 3 -11 9 -29 12 -40 6 -24 25 -25 64 -5 40 21 47 55 25 124 -38 121
-65 140 -150 110z"/>
<path d="M2934 5275 c-2 -5 -5 -158 -6 -340 l-3 -330 -97 -3 -98 -3 -1 38 c0
21 -1 64 -1 96 l-1 57 -102 0 -102 0 1 -132 c2 -147 12 -180 65 -217 16 -12
49 -25 73 -29 35 -6 211 -7 328 -3 41 2 107 50 126 93 15 34 17 79 18 399 1
198 -1 365 -4 372 -6 15 -190 18 -196 2z"/>
<path d="M3798 5285 c0 0 -2 -197 -3 -437 l-2 -438 251 0 c233 0 253 1 293 21
23 11 53 35 65 52 23 31 23 38 26 354 3 348 2 359 -52 405 -43 38 -67 41 -323
42 -139 1 -254 1 -255 1z m429 -429 c2 -133 -1 -234 -7 -240 -10 -13 -204 -16
-216 -4 -5 6 -9 335 -5 456 1 22 2 23 114 20 l112 -3 2 -229z"/>
<path d="M3379 5088 c-1 -2 -2 -30 -4 -63 -1 -33 -3 -65 -4 -70 0 -6 -31 -10
-76 -8 -71 1 -75 0 -76 -20 -4 -109 -3 -140 6 -145 5 -4 35 -8 65 -8 94 -2 87
4 85 -73 l-2 -69 88 0 88 0 3 71 3 71 75 1 75 0 1 86 0 86 -75 0 -76 -1 -3 72
-3 72 -84 0 c-47 0 -86 -1 -86 -2z"/>
<path d="M2740 2212 c-39 -13 -51 -59 -21 -86 27 -24 63 -17 79 16 21 44 -13
85 -58 70z"/>
<path d="M4210 2207 c-46 -23 -31 -97 20 -97 48 0 66 69 25 96 -16 11 -25 11
-45 1z"/>
<path d="M4010 1205 l0 -86 38 3 37 3 0 80 0 80 -37 3 -38 3 0 -86z"/>
</g>
</svg>
