<?xml version="1.0" encoding="UTF-8"?>
<svg id="b" data-name="Layer 1" xmlns="http://www.w3.org/2000/svg" width="1000" height="1000" viewBox="0 0 1000 1000">
  <path d="M393.419,698.666c4.177,0,7.563-3.386,7.563-7.563s-3.386-7.563-7.563-7.563-7.563,3.386-7.563,7.563,3.386,7.563,7.563,7.563Z"/>
  <path d="M604.199,698.666c4.177,0,7.563-3.386,7.563-7.563s-3.386-7.563-7.563-7.563-7.563,3.386-7.563,7.563,3.386,7.563,7.563,7.563Z"/>
  <path d="M155.566,400.444l4.07-11.791-17.966-6.199,2.156-6.247,20.458-1.03,4.362-12.632-21.308,1.208c-.058-2.112-.727-4.007-2.006-5.679-1.281-1.672-2.999-2.881-5.153-3.623l-12.702-4.384c-2.854-.984-5.542-.863-8.057,.363-2.501,1.177-4.253,3.219-5.254,6.119l-9.13,26.459,50.532,17.437Zm-31.403-36.677c.336-.984,.974-1.312,1.912-.988l7.579,2.613c.938,.326,1.235,.976,.894,1.96l-3.901,11.298-10.385-3.584,3.901-11.298Z"/>
  <polygon points="183.651 332.009 143.062 293.801 136.737 306.324 166.886 331.613 128.771 322.098 122.314 334.888 177.157 344.867 183.651 332.009"/>
  <path d="M213.418,285.195l-14.998-11.673,4.055-5.215,19.699,5.641,8.207-10.547-20.557-5.745c.631-2.018,.609-4.024-.063-6.023-.672-1.996-1.904-3.693-3.702-5.092l-10.605-8.256c-2.38-1.854-4.966-2.605-7.741-2.262-2.748,.309-5.065,1.675-6.953,4.096l-17.188,22.087,42.184,32.831,7.661-9.843Zm-16.854-28.264l-7.344,9.433-8.671-6.748,7.342-9.433c.638-.822,1.349-.928,2.132-.321l6.325,4.925c.783,.609,.853,1.322,.218,2.144Z"/>
  <polygon points="261.245 232.558 252.941 224.167 236.476 240.458 229.741 233.65 242.88 220.648 234.526 212.204 221.386 225.206 215.484 219.244 231.949 202.95 223.648 194.559 198.316 219.626 235.913 257.622 261.245 232.558"/>
  <path d="M277.495,219.493l-11.083-14.423,12.364-9.5c2.393-1.839,3.787-4.128,4.181-6.864,.365-2.777-.389-5.38-2.26-7.816l-8.729-11.361c-1.839-2.393-4.147-3.773-6.924-4.137-2.777-.363-5.363,.375-7.755,2.214l-22.253,17.098,32.568,42.387,9.892-7.598Zm-25.378-33.027l9.539-7.328c.824-.633,1.539-.558,2.139,.227l5.293,6.888c.604,.785,.493,1.494-.331,2.127l-9.534,7.33-7.105-9.244Z"/>
  <path d="M310.515,196.082l-2.883-10.863,13.476-7.838,7.954,7.915,11.617-6.757-41.249-37.846-12.582,7.315,12.499,54.568,11.168-6.494Zm1.965-27.338l-7.958,4.628-4.541-17.111,12.499,12.482Z"/>
  <rect x="336.201" y="122.296" width="12.473" height="53.456" transform="translate(-30.995 153.469) rotate(-24.2)"/>
  <path d="M379.874,162.687l-6.078-18.007,6.262-2.112,13.324,15.561,12.661-4.275-13.983-16.122c1.636-1.336,2.726-3.023,3.265-5.061,.544-2.035,.447-4.133-.278-6.291l-4.302-12.731c-.964-2.859-2.704-4.911-5.213-6.155-2.46-1.257-5.145-1.397-8.053-.416l-26.519,8.954,17.098,50.645,11.815-3.99Zm-1.996-43.284c.984-.334,1.636-.029,1.953,.909l2.564,7.596c.317,.938-.015,1.573-1.001,1.907l-11.325,3.823-3.519-10.411,11.327-3.823Z"/>
  <path d="M428.921,112.668c.454,3.434,2.325,5.882,5.617,7.347-3.202,2.219-4.572,5.097-4.104,8.628l1.184,8.981c.394,2.994,1.704,5.341,3.925,7.045,2.221,1.704,4.831,2.359,7.823,1.962l17.297-2.284c3.043-.401,5.418-1.711,7.122-3.934,1.699-2.221,2.354-4.829,1.96-7.823l-1.515-11.482,5.078-.669-1.445-10.967-28.854,3.809c-.933,.123-1.465-.305-1.595-1.288l-.824-6.257c-.131-.979,.321-1.539,1.351-1.675l6.699-.885c1.03-.135,1.61,.288,1.738,1.269l.363,2.721,12.364-1.631-.711-5.372c-.394-2.992-1.706-5.343-3.925-7.045-2.173-1.711-4.78-2.366-7.823-1.965l-13.763,1.817c-2.994,.396-5.343,1.706-7.045,3.927-1.704,2.221-2.356,4.829-1.962,7.821l1.046,7.951Zm15.535,11.579l11.407-1.508,1.167,8.833c.128,.984-.348,1.542-1.426,1.687l-10.228,1.351c-1.034,.135-1.614-.285-1.742-1.269l-.962-7.286c-.135-1.032,.459-1.634,1.784-1.808Z"/>
  <rect x="484.287" y="109.206" width="53.454" height="12.475" transform="translate(380.276 622.76) rotate(-88.279)"/>
  <polygon points="542.32 111.201 554.988 146.239 568.085 148.001 575.207 95.023 563.585 93.46 559.169 126.277 546.513 91.164 533.414 89.405 526.292 142.382 537.917 143.946 542.32 111.201"/>
  <path d="M586.546,152.909l16.895,4.638c2.91,.798,5.585,.505,8.019-.88,2.429-1.385,4.048-3.533,4.848-6.445l2.772-10.095c1.52-5.534-.972-9.913-7.48-13.14l-12.569-6.378c-.938-.512-1.315-1.102-1.131-1.771l1.339-4.867c.234-.858,.853-1.15,1.856-.877l9.592,2.634c1.003,.276,1.39,.843,1.15,1.701l-1.1,4.009,11.668,3.205,1.81-6.588c.8-2.91,.505-5.583-.877-8.016-1.39-2.431-3.56-4.055-6.52-4.867l-16.035-4.403c-2.961-.812-5.655-.527-8.086,.858-2.385,1.399-3.98,3.555-4.78,6.465l-2.632,9.592c-1.494,5.443,.998,9.824,7.477,13.142l12.553,6.448c.945,.466,1.332,1.034,1.146,1.701l-1.472,5.368c-.237,.86-.856,1.153-1.858,.877l-10.38-2.849c-1.049-.29-1.457-.863-1.22-1.723l1.235-4.507-11.596-3.185-1.948,7.088c-.8,2.91-.505,5.583,.88,8.016,1.385,2.434,3.533,4.05,6.445,4.85Z"/>
  <path d="M633.161,167.693l6.999-16.789,14.392,6.001c2.787,1.16,5.467,1.233,8.036,.213,2.588-1.066,4.473-3.014,5.655-5.849l5.513-13.224c1.16-2.787,1.208-5.476,.145-8.065-1.068-2.588-2.992-4.466-5.778-5.626l-25.903-10.798-20.571,49.338,11.513,4.8Zm16.025-38.443l11.103,4.628c.959,.399,1.249,1.056,.868,1.972l-3.34,8.016c-.384,.914-1.051,1.172-2.013,.771l-11.1-4.628,4.483-10.759Z"/>
  <polygon points="695.02 199.212 700.909 188.984 680.84 177.42 685.621 169.121 701.639 178.35 707.57 168.057 691.549 158.828 695.74 151.561 715.808 163.122 721.703 152.895 690.826 135.105 664.141 181.422 695.02 199.212"/>
  <path d="M705.455,203.175c.379,2.774,1.771,5.075,4.171,6.902l14.065,10.699c2.4,1.827,4.988,2.554,7.765,2.177,2.774-.379,5.075-1.767,6.902-4.171l5.846-7.68-9.928-7.552-4.135,5.435c-.602,.788-1.312,.868-2.141,.237l-8.391-6.38c-.827-.631-.94-1.339-.341-2.127l16.632-21.862c.599-.788,1.312-.868,2.139-.239l8.389,6.383c.829,.631,.943,1.339,.343,2.127l-4.135,5.435,9.928,7.55,5.844-7.678c1.827-2.405,2.55-4.993,2.175-7.767-.377-2.772-1.767-5.075-4.169-6.902l-14.063-10.699c-2.405-1.827-4.993-2.554-7.765-2.175-2.777,.377-5.078,1.767-6.905,4.169l-20.049,26.352c-1.827,2.405-2.554,4.993-2.177,7.767Z"/>
  <polygon points="746.578 240.492 755.46 249.248 784.804 219.481 794.268 228.81 802.451 220.51 774.642 193.095 766.458 201.396 775.92 210.725 746.578 240.492"/>
  <rect x="767.563" y="246.143" width="53.455" height="12.474" transform="translate(23.758 569.984) rotate(-40.028)"/>
  <path d="M787.806,282.186c-.517,2.75,.085,5.372,1.791,7.864l10.535,15.37c1.733,2.53,3.963,4.034,6.692,4.507,2.748,.512,5.37-.085,7.862-1.793l27.309-18.72c2.492-1.706,3.992-3.937,4.51-6.69,.539-2.712-.056-5.331-1.793-7.864l-10.535-15.37c-1.706-2.489-3.937-3.992-6.69-4.505-2.753-.515-5.375,.085-7.862,1.791l-27.314,18.72c-2.489,1.709-3.99,3.937-4.505,6.69Zm13.884,2.003l22.657-15.532c.817-.558,1.52-.411,2.107,.447l6.503,9.493c.59,.856,.474,1.566-.341,2.124l-22.657,15.532c-.817,.558-1.518,.411-2.105-.447l-6.508-9.493c-.587-.858-.474-1.564,.343-2.124Z"/>
  <polygon points="816.043 331.848 845.597 317.081 823.74 347.257 829.647 359.077 877.467 335.185 872.222 324.692 842.6 339.492 864.525 309.285 858.619 297.462 810.801 321.354 816.043 331.848"/>
  <path d="M864.38,356.261c-5.343,1.815-7.569,6.334-6.685,13.56l1.701,14.007c.145,1.046-.109,1.682-.764,1.907l-5.276,1.791c-.841,.288-1.428-.063-1.762-1.046l-3.466-10.194c-.35-1.032-.104-1.689,.74-1.977l4.43-1.503-3.869-11.388-6.958,2.364c-2.861,.972-4.908,2.712-6.146,5.223-1.24,2.511-1.373,5.198-.401,8.057l5.636,16.589c.972,2.859,2.712,4.908,5.225,6.146,2.509,1.235,5.196,1.37,8.055,.399l9.911-3.367c5.435-1.846,7.666-6.368,6.685-13.563l-1.771-13.983c-.102-1.063,.179-1.704,.836-1.929l4.778-1.624c.843-.288,1.433,.06,1.769,1.046l3.197,9.42c.334,.984,.08,1.619-.764,1.904l-3.937,1.339,3.893,11.458,6.465-2.197c2.859-.972,4.908-2.714,6.148-5.223,1.237-2.513,1.361-5.223,.375-8.128l-5.348-15.748c-.986-2.905-2.736-4.976-5.247-6.213-2.496-1.191-5.177-1.3-8.033-.331l-9.418,3.202Z"/>
  <path d="M499.913,40.412C246.484,40.412,40.303,246.594,40.303,500.024c0,81.425,21.573,161.414,62.386,231.319,39.787,68.203,96.812,125.381,164.911,165.349,70.159,41.176,150.492,62.942,232.313,62.942s162.141-21.765,232.304-62.942c68.107-39.971,125.137-97.148,164.92-165.346,40.813-69.904,62.386-149.894,62.386-231.321,0-253.43-206.18-459.612-459.609-459.612Zm0,14.848c210.784,0,387.79,147.392,433.37,344.524l-90.661,65.812-24.592-18.283c-25.237-152.815-158.267-269.746-318.121-269.746-163.696,0-299.274,122.615-319.762,280.822l-37.288,31.162-75.885-91.539C113.204,201.773,289.763,55.261,499.913,55.261Zm300.488,378.948l-99.483-73.96-81.587,69.921-154.023-39.642-74.885,18.089-85.193-54.761-107.768,90.063c26.451-142.915,151.992-251.503,302.447-251.503,147.03,0,270.269,103.698,300.492,241.792Zm-435.759,388.538v9.503h-14.788v7.661h18.53v9.445h-28.509v-42.764h28.509v9.442h-18.53v6.714h14.788Zm-35.981-138.899c-.594,0-1.064-.47-1.064-1.064v-10.417h33.112c-2.053,3.513-3.514,7.399-4.305,11.481h-27.742Zm217.58-76.272l-18.462-18.462c-.421-.421-.421-1.089,0-1.509l17.719-17.695c3.242-3.242,3.242-8.513,0-11.755l-20.07-20.07c-1.559-1.559-3.687-2.45-5.89-2.45h-37.938c-2.202,0-4.331,.891-5.865,2.45l-21.134,21.109c-.198,.198-.445,.297-.742,.297l-125.371,.817c-.668,0-1.213-.619-1.039-1.287,1.881-8.34,5.791-18.833,14.032-27.767,11.904-12.844,29.969-19.724,53.776-20.392,.272,0,.495,0,.767-.025,77.534-2.153,231.191-5.915,241.758-6.187q.049,0,.099,.025c3.539,.47,16.111,3.267,16.111,17.991,0,8.958-12.819,14.848-16.358,16.283-.124,.025-.198,.05-.322,.05l-63.032,4.356c-3.712,.248-6.608,3.292-6.731,7.004l-1.757,59.839c-.074,1.98,.668,3.861,2.029,5.296,1.361,1.41,3.242,2.203,5.172,2.203h86.294c.149,0,.322,.025,.47,.099l24.376,12.2c.371,.198,.619,.594,.594,1.015l-1.213,22.396-.248,4.455h-61.299c-5.321-2.846-11.334-4.455-17.793-4.455s-12.497,1.609-17.769,4.455h-175.187c-5.296-2.846-11.334-4.455-17.793-4.455s-12.473,1.609-17.769,4.455h-48.06v-40.388c0-.569,.47-1.064,1.064-1.064l125.222,.817c.272,0,.545,.099,.743,.297l21.11,21.11c1.559,1.559,3.663,2.425,5.865,2.425h37.938c2.227,0,4.356-.866,5.915-2.425l20.788-20.837c2.846-2.796,2.846-7.375,0-10.221Zm35.366-134.935v18.919h-.002c-52.09,1.287-128.801,3.242-179.088,4.603v-13.945l179.09-9.577Zm19.085,130.555h-19.112c-.594,0-1.089-.495-1.064-1.089l1.312-43.753c0-.544,.445-.99,.99-1.039l17.868-1.237h.007v47.119Zm14.503-48.134h.017l18.783-1.287h.025l17.042,49.421h-35.868v-48.134Zm26.027,128.786c-.816-4.083-2.252-7.968-4.33-11.481h45.286l-.023,.024c-4.925,3.687-17.942,11.26-40.932,11.458Zm-6.179,156.063v9.445h-30.528v-15.622c0-2.02,.791-3.77,2.376-5.256,1.583-1.486,3.643-2.584,6.177-3.296l10.156-3.089c.713-.157,1.178-.355,1.396-.592,.218-.239,.326-.655,.326-1.247v-2.852c0-1.071-.574-1.605-1.722-1.605h-6.89c-1.148,0-1.722,.556-1.722,1.663v2.315h-9.681v-4.867c0-2.296,.851-4.297,2.554-6.001,1.701-1.701,3.701-2.554,5.998-2.554h12.889c2.296,0,4.296,.853,5.998,2.554,1.703,1.704,2.554,3.705,2.554,6.001v7.898c0,2.02-.793,3.77-2.376,5.256-1.584,1.486-3.643,2.584-6.177,3.296l-10.156,3.089c-.674,.157-1.129,.355-1.365,.592-.238,.239-.356,.655-.356,1.249v3.623h20.55Zm29.02-24.114h-6.89c-1.148,0-1.722,.556-1.722,1.663v2.315h-9.681v-4.867c0-2.296,.851-4.297,2.554-6.001,1.701-1.701,3.701-2.554,5.998-2.554h12.889c2.296,0,4.296,.853,5.998,2.554,1.703,1.704,2.554,3.705,2.554,6.001v7.898c0,2.02-.793,3.77-2.376,5.256-1.584,1.486-3.643,2.584-6.177,3.296l-10.156,3.089c-.674,.157-1.129,.355-1.365,.592-.238,.239-.356,.655-.356,1.249v3.623h20.55v9.445h-30.528v-15.622c0-2.02,.791-3.77,2.376-5.256,1.583-1.486,3.643-2.584,6.177-3.296l10.156-3.089c.713-.157,1.178-.355,1.396-.592,.218-.239,.326-.655,.326-1.247v-2.852c0-1.071-.574-1.605-1.722-1.605Zm-123.313,0h-6.89c-1.148,0-1.722,.556-1.722,1.663v2.315h-9.681v-4.867c0-2.296,.851-4.297,2.554-6.001,1.701-1.701,3.701-2.554,5.998-2.554h12.889c2.296,0,4.296,.853,5.998,2.554,1.703,1.704,2.554,3.705,2.554,6.001v7.898c0,2.02-.793,3.77-2.376,5.256-1.584,1.486-3.643,2.584-6.177,3.296l-10.156,3.089c-.674,.157-1.129,.355-1.365,.592-.238,.239-.356,.655-.356,1.249v3.623h20.55v9.445h-30.528v-15.622c0-2.02,.791-3.77,2.376-5.256,1.583-1.486,3.643-2.584,6.177-3.296l10.156-3.089c.713-.157,1.178-.355,1.396-.592,.218-.239,.326-.655,.326-1.247v-2.852c0-1.071-.574-1.605-1.722-1.605Zm22.22,25.419v-26.488c0-2.417,.791-4.415,2.376-5.998,1.583-1.585,3.583-2.378,5.998-2.378h14.017c2.414,0,4.414,.793,5.998,2.378,1.583,1.583,2.376,3.582,2.376,5.998v26.488c0,2.417-.793,4.418-2.376,6.001-1.584,1.583-3.584,2.376-5.998,2.376h-14.017c-2.416,0-4.415-.793-5.998-2.376-1.584-1.583-2.376-3.584-2.376-6.001Zm-132.521-157.364v-.005c-.817-4.083-2.277-7.968-4.331-11.481h145.39c-2.078,3.513-3.514,7.399-4.33,11.481v.005h-136.729Zm150.538,7.247c0-2.524,.396-4.974,1.188-7.251,1.534-4.627,4.454-8.636,8.339-11.481h.011c.601-.437,1.231-.836,1.874-1.217,3.458-2.034,7.482-3.239,11.777-3.239s8.318,1.192,11.762,3.203c.666,.391,1.318,.801,1.938,1.253h.011c3.885,2.846,6.804,6.854,8.339,11.481,.148,.446,.297,.891,.421,1.361,.049,.223,.124,.421,.148,.643,.124,.445,.223,.891,.272,1.336,.247,1.262,.347,2.574,.347,3.91,0,1.311-.099,2.598-.322,3.86-.074,.52-.198,1.04-.322,1.559-.025,.173-.074,.321-.124,.495-.124,.445-.248,.891-.396,1.336-3.044,9.28-11.78,15.987-22.075,15.987s-18.981-6.706-22.025-15.987c-.767-2.277-1.163-4.727-1.163-7.251Zm-210.032,5.915c-.05-.248-.124-.47-.148-.718-.124-.421-.198-.841-.248-1.287-.247-1.287-.347-2.574-.347-3.91s.099-2.648,.347-3.91c.05-.446,.148-.891,.272-1.336,.025-.223,.099-.421,.148-.643,.124-.47,.272-.916,.421-1.361,1.534-4.627,4.454-8.636,8.339-11.481h.004c.264-.192,.542-.365,.813-.546,3.684-2.438,8.1-3.91,12.869-3.91,5.123,0,9.85,1.683,13.661,4.455,3.885,2.846,6.83,6.855,8.365,11.483v.005h-.002c.783,2.262,1.189,4.728,1.189,7.251,0,2.245-.338,4.415-.94,6.482-.075,.254-.138,.514-.222,.765-3.044,9.28-11.78,15.987-22.05,15.987s-19.031-6.706-22.075-15.987c-.148-.446-.272-.891-.396-1.336Zm59.492,1.341h136.732c2.773,14.227,13.562,25.634,27.468,29.247h-191.694c13.931-3.613,24.72-15.019,27.493-29.247Zm33.492,141.377v9.623h-9.325v-9.623h9.325Zm-44.843-23.817v-9.324h31.241v9.324h-10.631v33.44h-9.978v-33.44h-10.632Zm-18.542-9.563c2.454,0,4.473,.793,6.058,2.378,1.583,1.583,2.376,3.582,2.376,5.998v5.462h-9.681v-3.325c0-.711-.416-1.068-1.247-1.068h-7.958c-.831,0-1.247,.358-1.247,1.068v4.041c0,.553,.416,.928,1.247,1.126l11.047,2.257c5.702,1.112,8.553,3.961,8.553,8.555v8.372c0,2.417-.793,4.418-2.376,6.001-1.584,1.583-3.584,2.376-5.998,2.376h-14.017c-2.416,0-4.417-.793-6-2.376-1.584-1.583-2.376-3.584-2.376-6.001v-5.878h9.622v3.741c0,.713,.435,1.068,1.306,1.068h8.612c.831,0,1.247-.355,1.247-1.068v-4.456c0-.551-.416-.909-1.247-1.068l-11.047-2.315c-5.702-1.189-8.553-4.041-8.553-8.553v-7.958c0-2.417,.772-4.415,2.316-5.998,1.583-1.585,3.602-2.378,6.058-2.378h13.305Zm483.76-82.491c-.735,1.26-1.517,2.488-2.264,3.74h-84.154v-60.669c9.901,14.483,24.861,29.298,44.676,29.298,4.1,0,7.424-3.323,7.424-7.424s-3.324-7.424-7.424-7.424c-22.381,0-39.493-32.383-44.676-45.974v-26.547c12.591,17.498,26.101,26.37,40.153,26.37,4.1,0,7.424-3.323,7.424-7.424s-3.324-7.424-7.424-7.424c-18.177,0-34.68-28.67-40.153-41.057v-24.601c7.338,11.625,17.964,21.236,33.034,21.236,4.1,0,7.424-3.323,7.424-7.424s-3.324-7.424-7.424-7.424c-24.366,0-33.051-48.516-33.131-49-.006-.036-.021-.069-.027-.105-.046-.26-.126-.505-.198-.754-.058-.2-.102-.406-.175-.598-.086-.224-.202-.431-.309-.645-.099-.198-.185-.403-.301-.59-.118-.19-.262-.359-.395-.538-.138-.184-.264-.375-.417-.545-.151-.167-.326-.309-.492-.462-.165-.153-.321-.315-.499-.452-.176-.135-.373-.243-.561-.362-.195-.124-.383-.257-.589-.363-.177-.09-.368-.151-.553-.227-.243-.1-.481-.208-.735-.282-.161-.047-.331-.067-.496-.103-.295-.065-.588-.131-.893-.159-.028-.002-.053-.012-.081-.015-.18-.016-.353,.008-.532,.005-.225-.002-.445-.028-.673-.01-.034,.003-.066,.015-.1,.018-.286,.026-.559,.09-.836,.148-.178,.038-.361,.059-.534,.109-.259,.075-.502,.185-.749,.287-.179,.074-.366,.133-.537,.22-.207,.105-.395,.24-.59,.364-.19,.12-.387,.228-.565,.364-.165,.127-.309,.278-.463,.419-.181,.164-.369,.319-.532,.5-.134,.148-.242,.316-.364,.475-.155,.201-.317,.396-.451,.613-.1,.163-.173,.342-.261,.513-.122,.238-.251,.47-.347,.722-.067,.176-.106,.365-.16,.548-.078,.264-.163,.525-.212,.8-.006,.034-.021,.065-.026,.099-.081,.488-8.767,49.004-33.132,49.004-4.1,0-7.424,3.323-7.424,7.424s3.324,7.424,7.424,7.424c15.071,0,25.696-9.611,33.034-21.236v24.599c-5.47,12.386-21.974,41.059-40.153,41.059-4.1,0-7.424,3.323-7.424,7.424s3.324,7.424,7.424,7.424c14.052,0,27.562-8.872,40.153-26.37v26.547c-5.183,13.591-22.295,45.974-44.676,45.974-4.1,0-7.424,3.323-7.424,7.424s3.324,7.424,7.424,7.424c19.815,0,34.775-14.816,44.676-29.298v60.669h-169.344c13.933-3.613,24.747-15.022,27.519-29.251,36.206-.248,52.885-16.952,53.578-17.695,1.213-1.262,1.93-2.92,2.029-4.652l2.673-49.668c.149-2.87-1.435-5.568-4.009-6.88l-28.361-14.205h-.022l-19.013-55.135,.004-.002c7.993-4.207,20.392-12.992,20.392-27.445,0-23.436-19.377-31.504-29.623-32.494-.297-.025-.569-.025-.866-.025-.52,0-17.026,.421-41.873,1.015h-.023v-19.298l29.98-1.603c4-.214,7.067-3.63,6.852-7.628-.215-4-3.6-7.093-7.628-6.855l-277.447,14.837c-4,.214-7.067,3.63-6.852,7.628,.207,3.868,3.408,6.865,7.234,6.865,.13,0,.261-.003,.394-.01l39.372-2.106v13.738h-.009c-24.648,1.906-43.902,10.246-57.315,24.872-14.7,16.012-18.016,35.884-18.684,46.253-.248,3.811,2.772,7.028,6.583,7.003l138.338-.866c2.203-.025,4.281-.891,5.84-2.45l21.085-21.085c.198-.198,.47-.322,.742-.322h31.949c.272,0,.545,.124,.743,.322l12.819,12.819c.421,.421,.421,1.089,0,1.51l-8.365,8.365c-.421,.421-1.089,.421-1.51,0l-6.236-6.236c-1.559-1.559-3.687-2.45-5.89-2.45h-14.972c-2.203,0-4.331,.891-5.89,2.45l-17.719,17.744c-2.054,2.054-2.054,5.37,0,7.424l17.694,17.719c1.584,1.559,3.687,2.425,5.915,2.425h15.418c1.93,0,3.786-.743,5.098-2.104l6.558-6.558c.421-.421,1.089-.421,1.51,0l8.389,8.389c.421,.421,.421,1.089,0,1.485l-12.819,12.819c-.198,.198-.47,.297-.767,.297h-31.924c-.272,0-.545-.099-.742-.297l-21.407-21.382c-1.336-1.361-3.168-2.129-5.073-2.129l-136.977-.891c-1.683-.025-3.168,.495-4.405,1.435-1.955,1.51-2.895,4.034-2.895,6.534v80.206c0,4.603,3.712,8.315,8.315,8.315h34.993c2.772,14.23,13.586,25.638,27.494,29.251H217.037v-60.67c9.901,14.483,24.861,29.299,44.676,29.299,4.1,0,7.424-3.323,7.424-7.424s-3.324-7.424-7.424-7.424c-22.38,0-39.492-32.384-44.676-45.974v-26.547c12.591,17.498,26.101,26.37,40.154,26.37,4.1,0,7.424-3.323,7.424-7.424s-3.324-7.424-7.424-7.424c-18.178,0-34.681-28.67-40.154-41.057v-24.601c7.338,11.627,17.962,21.236,33.034,21.236,4.1,0,7.424-3.323,7.424-7.424s-3.324-7.424-7.424-7.424c-24.364,0-33.051-48.516-33.131-49-.006-.036-.021-.069-.027-.105-.045-.254-.124-.494-.194-.738-.059-.207-.105-.419-.181-.618-.078-.202-.184-.388-.278-.582-.109-.223-.207-.451-.336-.66-.091-.146-.203-.276-.304-.415-.166-.23-.326-.464-.516-.673-.103-.113-.223-.206-.332-.313-.214-.208-.426-.419-.663-.6-.121-.092-.256-.163-.383-.247-.25-.167-.497-.336-.766-.472-.135-.068-.282-.113-.421-.173-.282-.121-.562-.243-.86-.33-.142-.041-.294-.058-.439-.091-.31-.07-.619-.138-.941-.168-.028-.003-.053-.012-.081-.015-.18-.016-.353,.008-.531,.005-.225-.002-.445-.028-.674-.01-.034,.003-.066,.015-.1,.018-.298,.027-.584,.093-.872,.155-.163,.036-.332,.054-.492,.1-.29,.084-.563,.204-.839,.321-.147,.063-.301,.11-.443,.182-.25,.127-.479,.285-.713,.439-.147,.097-.303,.179-.442,.285-.204,.156-.384,.34-.571,.516-.143,.135-.296,.258-.428,.403-.156,.172-.285,.367-.424,.554-.134,.179-.277,.348-.395,.538-.108,.175-.188,.367-.281,.552-.115,.227-.238,.448-.33,.687-.068,.179-.108,.371-.163,.556-.077,.262-.161,.52-.21,.793-.006,.034-.02,.065-.026,.099-.081,.488-8.767,49.004-33.131,49.004-4.1,0-7.424,3.323-7.424,7.424s3.324,7.424,7.424,7.424c15.071,0,25.695-9.611,33.033-21.234v24.597c-5.47,12.386-21.974,41.059-40.153,41.059-4.1,0-7.424,3.323-7.424,7.424s3.324,7.424,7.424,7.424c14.052,0,27.562-8.872,40.153-26.37v26.547c-5.183,13.591-22.295,45.974-44.676,45.974-4.1,0-7.424,3.323-7.424,7.424s3.324,7.424,7.424,7.424c19.815,0,34.775-14.816,44.676-29.298v60.669H117.778c-.747-1.253-1.53-2.482-2.265-3.743-39.49-67.635-60.362-145.036-60.362-223.834,0-28.531,2.733-56.433,7.892-83.484l77.899,93.966,165.438-138.257,81.355,52.296,77.459-18.713,157.926,40.647,78.455-67.239,140.943,104.783,94.104-68.314c5.262,27.311,8.052,55.491,8.052,84.315,0,78.798-20.872,156.199-60.362,223.836Zm-369.377-135.489l-9.404,9.354h-9.825l-9.379-9.354v-.025l9.379-9.379h9.849l9.379,9.404Z"/>
  <path d="M499.913,11.559C230.573,11.559,11.448,230.683,11.448,500.024c0,86.539,22.928,171.55,66.302,245.839,42.283,72.485,102.889,133.252,175.265,175.731,74.565,43.762,159.94,66.893,246.898,66.893s172.321-23.131,246.889-66.893c72.383-42.482,132.992-103.248,175.273-175.729,43.376-74.291,66.303-159.302,66.303-245.841,0-269.341-219.125-488.465-488.465-488.465Zm408.533,726.353c-40.922,70.148-99.578,128.96-169.631,170.071-72.148,42.341-154.759,64.723-238.901,64.723s-166.766-22.381-238.91-64.723c-70.046-41.109-128.7-99.918-169.624-170.074-41.968-71.879-64.15-154.14-64.15-237.885C27.229,239.385,239.275,27.34,499.913,27.34s472.684,212.045,472.684,472.684c0,83.745-22.182,166.006-64.151,237.887Z"/>
  <path d="M418.535,339.46c0,2.31-1.212,3.466-3.637,3.466h-21.654c-2.425,0-3.638-1.155-3.638-3.466v-23.558h-29.102v30.142c0,7.042,2.251,12.876,6.756,17.497,4.617,4.616,10.507,6.926,17.669,6.926h38.285c7.042,0,12.876-2.31,17.496-6.926,4.618-4.621,6.93-10.455,6.93-17.497v-100.996h-29.104v94.413Z"/>
  <polygon points="506.83 273.111 482.058 273.111 482.058 293.378 459.538 293.378 459.538 317.98 482.058 317.98 482.058 338.247 506.83 338.247 506.83 317.98 529.35 317.98 529.35 293.378 506.83 293.378 506.83 273.111"/>
  <path d="M608.656,245.048h-66.695v124.728h66.695c7.16,0,12.992-2.31,17.496-6.931,4.618-4.616,6.93-10.45,6.93-17.497v-75.876c0-7.042-2.312-12.876-6.93-17.492-4.504-4.621-10.336-6.931-17.496-6.931Zm-4.678,93.717c0,2.315-1.212,3.466-3.637,3.466h-29.276v-69.636h29.276c2.425,0,3.637,1.155,3.637,3.461v62.71Z"/>
  <path d="M574.193,840.147h8.316c.831,0,1.247-.396,1.247-1.189v-21.973c0-.793-.416-1.189-1.247-1.189h-8.316c-.831,0-1.247,.396-1.247,1.189v21.973c0,.793,.416,1.189,1.247,1.189Z"/>
</svg>